<?xml version="1.0" standalone="no"?>
<!DOCTYPE svg PUBLIC "-//W3C//DTD SVG 20010904//EN"
 "http://www.w3.org/TR/2001/REC-SVG-20010904/DTD/svg10.dtd">
<svg version="1.0" xmlns="http://www.w3.org/2000/svg"
 width="260.000000pt" height="260.000000pt" viewBox="0 0 260.000000 260.000000"
 preserveAspectRatio="xMidYMid meet">
<metadata>
Created by potrace 1.14, written by Peter Selinger 2001-2017
</metadata>
<g transform="translate(0.000000,260.000000) scale(0.100000,-0.100000)"
fill="#000000" stroke="none">
<path d="M0 1300 l0 -1300 1300 0 1300 0 0 1300 0 1300 -1300 0 -1300 0 0
-1300z m2341 1159 c47 -16 107 -76 119 -119 6 -22 10 -414 10 -1045 0 -958 -1
-1012 -19 -1050 -22 -50 -69 -91 -119 -105 -24 -6 -381 -10 -1040 -10 -1105 0
-1041 -4 -1110 63 -18 17 -37 47 -42 67 -6 22 -10 412 -10 1043 0 887 2 1012
15 1045 21 49 52 81 100 103 38 18 89 19 1051 19 727 0 1021 -3 1045 -11z"/>
<path d="M995 2046 c-17 -7 -43 -27 -57 -45 -20 -23 -35 -31 -61 -31 -68 0
-103 -82 -54 -128 45 -43 127 -13 127 46 0 18 6 22 30 22 60 0 90 -62 90 -188
l0 -73 -47 40 c-102 85 -213 106 -298 57 -24 -14 -53 -40 -65 -56 -14 -20 -30
-30 -46 -30 -34 0 -74 -42 -74 -79 0 -40 52 -85 89 -76 43 10 74 52 66 91 -5
32 -4 33 32 40 82 15 162 -25 283 -142 l76 -73 50 25 c109 54 246 52 333 -4
l43 -27 67 66 c118 116 224 170 297 150 25 -6 29 -12 26 -38 -5 -43 34 -86 76
-86 41 0 82 37 82 73 0 37 -36 80 -66 80 -15 0 -38 16 -65 44 -94 103 -225 97
-352 -14 -25 -22 -48 -40 -52 -40 -4 0 -5 39 -3 88 5 98 26 152 78 196 36 30
50 33 50 11 0 -27 47 -65 80 -65 41 0 80 39 80 80 0 57 -81 105 -117 69 -8 -8
-19 -6 -41 5 -97 50 -202 -15 -304 -186 -22 -38 -41 -68 -43 -68 -1 0 -18 33
-38 73 -45 90 -104 159 -160 186 -50 24 -70 25 -112 7z"/>
<path d="M1123 1388 c-66 -22 -55 -148 16 -178 25 -10 38 -9 86 9 69 26 81 26
152 1 75 -26 80 -26 114 11 25 26 29 39 29 86 0 52 -1 54 -35 69 -52 21 -127
18 -159 -7 l-26 -20 -26 20 c-29 23 -95 27 -151 9z m116 -59 c40 -14 40 -34 0
-48 -24 -8 -38 -8 -57 2 -36 17 -38 33 -5 45 15 6 28 11 29 11 1 1 15 -4 33
-10z m186 -1 c33 -15 32 -36 -2 -45 -70 -18 -121 22 -59 47 29 12 31 12 61 -2z"/>
<path d="M1054 798 c-4 -5 -48 -29 -99 -53 -100 -46 -133 -78 -160 -154 -8
-24 -15 -45 -15 -47 0 -2 234 -4 520 -4 l520 0 -6 28 c-10 42 -39 95 -66 118
-12 12 -66 42 -118 68 l-94 46 -31 -29 c-49 -46 -94 -64 -176 -69 -101 -6
-175 16 -229 67 -22 21 -43 34 -46 29z"/>
</g>
</svg>
